<svg xmlns="http://www.w3.org/2000/svg" width="1920" height="1080"><style><![CDATA[.B{color-interpolation-filters:sRGB}.C{fill-opacity:.417}]]></style><defs><filter id="A" x="-.473" y="-.36" width="1.946" height="1.72" class="B"><feGaussianBlur stdDeviation="107.731"/></filter><filter id="B" x="-.399" y="-.303" width="1.798" height="1.607" class="B"><feGaussianBlur stdDeviation="90.829"/></filter><filter id="C" x="-.291" y="-.221" width="1.582" height="1.443" class="B"><feGaussianBlur stdDeviation="66.298"/></filter><filter id="D" x="-.285" y="-.217" width="1.57" height="1.433" class="B"><feGaussianBlur stdDeviation="64.845"/></filter><filter id="E" x="-.16" y="-.122" width="1.32" height="1.243" class="B"><feGaussianBlur stdDeviation="36.403"/></filter><filter id="F" x="-.169" y="-.129" width="1.339" height="1.258" class="B"><feGaussianBlur stdDeviation="38.572"/></filter><filter id="G" x="-.813" y="-2.292" width="2.626" height="5.584" class="B"><feGaussianBlur stdDeviation="256.649"/></filter></defs><path d="M0 0h1920v1080H0z" fill="#1a1a1e"/><ellipse cx="166.178" cy="917.933" rx="378.922" ry="134.376" transform="matrix(1.082737 0 0 1.064034 33.757502 20.204879)" fill="#ef7171" filter="url(#G)" class="C"/><ellipse cx="1322.853" cy="137.479" rx="378.922" ry="134.376" transform="matrix(1.102659 0 0 1.128068 -217.45736 -155.08586)" fill="#d571ef" filter="url(#G)" class="C"/><g transform="matrix(1.072253 0 0 1.072253 470.79725 313.52198)"><g transform="matrix(.760319 -.64955 .880532 .473987 0 0)" fill="#0a9a9d"><rect width="546.495" height="718.423" x="-216.864" y="848.029" ry="63.712"/><rect width="546.495" height="718.423" x="-216.864" y="848.029" ry="63.712" filter="url(#A)"/></g><g transform="matrix(.861561 -.507654 .784848 .619688 0 0)" fill="#0a419d"><rect width="546.495" height="718.423" x="36.43" y="701.057" ry="63.712"/><rect width="546.495" height="718.423" x="36.43" y="701.057" ry="63.712" filter="url(#B)"/></g><g transform="matrix(.936625 -.350334 .665317 .746561 0 0)" fill="#272730"><rect width="546.495" height="718.423" x="272.524" y="566.404" ry="63.712"/><rect width="546.495" height="718.423" x="272.524" y="566.404" ry="63.712" filter="url(#C)"/></g></g><g transform="matrix(1.108744 0 0 1.108744 51.209664 51.43729)"><g transform="matrix(.760319 -.64955 .880532 .473987 0 0)" fill="#c0ac0c"><rect width="546.495" height="718.423" x="-370.002" y="-451.388" ry="63.712"/><rect width="546.495" height="718.423" x="-370.002" y="-451.388" ry="63.712" filter="url(#D)"/></g><g transform="matrix(.861561 -.507654 .784848 .619688 0 0)" fill="#759d0a"><rect width="546.495" height="718.423" x="-374.907" y="-401.856" ry="63.712"/><rect width="546.495" height="718.423" x="-381.089" y="-406.919" ry="63.712" filter="url(#E)"/></g><g transform="matrix(.936625 -.350334 .665317 .746561 0 0)" fill="#272730"><rect width="546.495" height="718.423" x="-374.763" y="-381.19" ry="63.712"/><rect width="546.495" height="718.423" x="-374.763" y="-381.19" ry="63.712" filter="url(#F)"/></g></g></svg>